<?xml version="1.0" encoding="UTF-8" standalone="no"?>
<!DOCTYPE svg PUBLIC "-//W3C//DTD SVG 20010904//EN"
              "http://www.w3.org/TR/2001/REC-SVG-20010904/DTD/svg10.dtd">

<svg xmlns="http://www.w3.org/2000/svg"
     width="3.33333in" height="4.88333in"
     viewBox="0 0 1000 1465">
  <path id="Sans nom"
        fill="none" stroke="black" stroke-width="1"
        d="M 154.12,146.00
           C 154.12,146.00 149.45,150.36 149.45,150.36
             149.45,150.36 116.91,151.82 116.91,151.82
             116.91,151.82 93.82,163.27 93.82,163.27
             93.82,163.27 87.64,164.18 87.64,164.18
             87.64,164.18 83.27,171.82 83.27,172.00
             83.27,172.18 81.27,178.18 81.27,178.18
             81.27,178.18 81.27,183.82 81.27,183.82
             81.27,183.82 81.82,189.27 81.82,189.27
             81.82,189.27 85.45,194.00 85.45,194.00
             85.45,194.00 86.36,198.91 86.36,198.91
             86.36,198.91 82.18,201.27 82.00,201.27
             81.82,201.27 77.27,206.00 77.27,206.00
             77.27,206.00 77.09,210.55 77.09,210.55
             77.09,210.55 76.91,213.45 76.91,213.45
             76.91,213.45 75.45,214.18 75.45,214.36
             75.45,214.55 73.64,218.73 73.64,218.73
             73.64,218.73 71.09,222.55 71.09,222.55
             71.09,222.55 71.45,229.27 71.45,229.27
             71.45,229.27 68.91,233.09 68.91,233.09
             68.91,233.09 67.45,238.00 67.45,238.00
             67.45,238.00 69.27,247.82 69.27,247.82
             69.27,247.82 70.55,250.00 70.55,250.00
             70.55,250.00 78.36,250.00 78.36,250.00
             78.36,250.00 79.64,262.73 79.64,262.73
             120.55,277.09 210.55,269.45 232.36,251.82
             232.36,251.82 232.75,241.50 232.75,241.50
             232.51,238.15 239.05,235.11 239.50,241.38
             239.50,241.38 239.50,246.38 239.50,246.38
             239.50,246.38 248.38,239.50 248.38,239.50
             248.38,239.50 246.75,233.88 246.75,233.88
             246.75,233.88 246.38,225.12 246.38,225.12
             246.38,225.12 250.25,212.38 250.25,212.38
             250.25,212.38 252.25,200.12 252.25,200.12
             252.25,200.12 251.00,197.75 251.00,197.75
             251.00,197.75 240.50,187.75 240.50,187.75
             240.50,187.75 237.62,180.38 237.62,180.38
             237.62,180.38 235.38,174.38 235.38,174.38
             235.38,174.38 233.12,167.88 233.12,167.88
             233.12,167.88 229.62,164.12 229.62,164.12
             229.62,164.12 226.62,162.12 226.62,162.12
             226.62,162.12 215.25,162.38 215.25,162.38
             215.25,162.38 212.00,160.62 212.00,160.62
             212.00,160.62 205.12,159.38 205.12,159.38
             205.12,159.38 203.00,157.00 203.00,157.00
             203.00,157.00 198.75,155.62 198.75,155.62
             198.75,155.62 195.62,152.12 195.62,152.12
             195.62,152.12 182.50,144.38 182.50,144.38
             182.50,144.38 179.50,145.12 179.50,145.12
             179.50,145.12 154.62,145.62 154.38,145.75" />
</svg>
